<?xml version="1.0" standalone="no"?>
<!DOCTYPE svg PUBLIC "-//W3C//DTD SVG 20010904//EN"
 "http://www.w3.org/TR/2001/REC-SVG-20010904/DTD/svg10.dtd">
<svg version="1.0" xmlns="http://www.w3.org/2000/svg"
 width="515.000000pt" height="515.000000pt" viewBox="0 0 515.000000 515.000000"
 preserveAspectRatio="xMidYMid meet">
<metadata>
Created by potrace 1.11, written by Peter Selinger 2001-2013
</metadata>
<g transform="translate(0.000000,515.000000) scale(0.100000,-0.100000)"
fill="#000000" stroke="none">
<path d="M2364 5021 c-29 -5 -57 -12 -63 -15 -6 -4 -11 -2 -11 3 0 15 -36 13
-85 -5 -25 -8 -29 -12 -11 -8 77 14 89 14 44 -1 -27 -9 -48 -20 -48 -26 0 -6
-4 -7 -10 -4 -11 7 -119 -25 -182 -54 -117 -53 -152 -72 -123 -67 45 9 12 -7
-79 -39 -103 -36 -219 -102 -326 -183 -47 -36 -76 -54 -65 -42 l20 24 -33 -23
c-18 -12 -30 -27 -26 -32 3 -5 2 -9 -3 -8 -25 4 -42 -3 -48 -20 -3 -11 -21
-36 -40 -56 -18 -21 -39 -50 -45 -66 -7 -16 -16 -29 -20 -29 -13 0 -24 -52
-21 -96 2 -36 -3 -47 -46 -95 -59 -65 -93 -112 -98 -136 -2 -10 -13 -37 -24
-60 -21 -42 -28 -70 -12 -44 17 27 30 2 17 -32 -8 -17 -16 -54 -19 -82 -9 -72
-11 -275 -3 -282 3 -4 17 4 31 17 24 22 25 30 22 96 -4 79 11 134 38 134 8 0
15 -8 16 -17 0 -11 6 -5 15 15 8 17 19 32 25 32 5 0 23 -28 40 -63 29 -62 29
-64 12 -97 -9 -19 -22 -66 -29 -105 -7 -38 -16 -83 -19 -100 -4 -16 -7 -67 -8
-113 -1 -48 -4 -74 -9 -63 -4 11 -7 42 -6 70 0 33 -6 56 -16 66 -9 9 -16 22
-16 28 0 7 -9 20 -19 29 -19 16 -20 15 -31 -34 -6 -28 -13 -83 -17 -122 -3
-39 -7 -73 -9 -74 -1 -2 -26 42 -54 99 -28 56 -58 112 -66 123 -14 20 -15 20
-8 -9 4 -16 25 -67 46 -112 21 -45 40 -95 42 -110 1 -16 8 -40 15 -53 11 -22
9 -21 -14 5 -18 21 -24 24 -19 10 4 -11 11 -24 15 -30 4 -5 7 -14 7 -18 0 -4
9 -27 20 -50 20 -43 33 -87 26 -87 -2 0 -15 21 -28 48 -14 26 -25 41 -26 34 0
-7 16 -44 37 -82 20 -39 34 -72 32 -75 -3 -2 -23 25 -44 60 -27 43 -49 67 -69
75 -36 13 -46 12 -23 -1 22 -13 80 -100 110 -165 8 -17 20 -34 25 -38 6 -3 13
-21 17 -39 16 -77 50 -156 92 -209 24 -32 42 -61 40 -65 -3 -5 2 -22 11 -38
59 -108 203 -262 337 -362 98 -72 101 -76 158 -181 98 -182 135 -264 161 -355
31 -108 36 -189 13 -212 -22 -21 -21 -31 1 -41 29 -13 64 -14 86 -2 34 18 75
55 69 62 -4 3 -3 6 0 6 3 0 11 -8 16 -18 8 -14 5 -18 -11 -19 -30 -3 -58 -33
-58 -62 1 -14 9 -49 18 -77 l18 -51 -64 29 c-35 16 -66 27 -68 25 -8 -7 46
-94 87 -140 46 -52 121 -91 194 -101 l50 -6 -35 18 c-19 11 -53 25 -75 32 -22
7 -44 17 -50 22 -5 5 2 5 18 -1 15 -6 27 -9 27 -6 0 2 36 -11 81 -30 45 -19
99 -38 120 -41 22 -4 42 -11 46 -17 4 -6 0 -8 -10 -4 -8 3 -33 8 -54 11 l-38
6 33 -15 c19 -9 53 -18 75 -21 23 -3 47 -11 52 -16 7 -7 3 -8 -10 -5 -24 7
-165 30 -182 30 -6 0 -9 6 -6 14 3 8 -2 14 -13 14 -11 1 -28 3 -39 4 -262 30
-361 30 -324 1 8 -6 19 -21 26 -33 10 -18 9 -22 -4 -27 -14 -6 -12 -11 14 -35
17 -15 33 -36 37 -47 3 -11 18 -27 33 -37 22 -13 24 -16 8 -14 -11 1 -25 6
-31 9 -6 4 -19 1 -29 -6 -17 -12 -14 -15 32 -30 28 -9 81 -19 119 -21 103 -7
141 -15 217 -46 38 -15 76 -25 85 -22 11 5 13 3 7 -7 -5 -8 -4 -11 2 -7 6 4
33 0 59 -9 28 -8 100 -17 166 -19 65 -2 127 -7 139 -10 15 -5 20 -3 17 6 -3 9
-20 13 -49 12 -43 -1 -43 -1 -9 7 l35 7 -30 2 c-16 1 -55 8 -85 16 l-55 13 60
2 60 2 -60 13 c-53 11 -56 13 -25 15 43 3 36 3 90 -4 115 -14 174 -18 283 -19
135 0 147 -15 14 -18 -48 -1 -89 -4 -91 -8 -7 -11 238 -3 284 9 25 7 61 20 81
31 20 10 39 16 41 14 3 -3 5 1 6 8 0 6 9 34 18 61 15 43 16 56 4 115 -15 78
-38 141 -52 141 -5 0 -6 -6 -2 -13 5 -7 1 -6 -10 3 -11 8 -14 16 -7 18 6 2 11
8 11 14 0 5 15 28 33 51 18 23 39 64 46 92 12 48 12 50 -13 70 -26 20 -35 55
-16 55 13 0 11 56 -4 105 -12 39 -22 45 -57 30 -16 -6 -16 0 -2 72 7 43 21
105 29 137 8 32 13 61 10 63 -3 4 -39 -122 -50 -177 -10 -52 -22 -84 -28 -74
-19 30 115 434 137 412 2 -2 -8 -28 -22 -58 -18 -37 -26 -73 -27 -112 -1 -32
-1 -58 1 -58 1 0 7 18 13 41 18 66 22 38 5 -35 -10 -45 -13 -77 -7 -99 l9 -32
5 32 c2 18 1 30 -4 27 -4 -3 -8 -1 -8 5 0 5 4 12 9 16 5 3 15 22 22 43 6 20
17 44 24 52 7 8 22 47 35 85 12 39 38 99 57 135 36 67 120 163 135 154 4 -3 8
0 8 5 0 6 18 10 43 10 l42 -2 -40 -6 -40 -7 52 -8 c55 -8 78 -2 66 17 -4 7 -8
17 -9 22 0 6 -2 16 -2 23 -1 7 -7 10 -13 6 -7 -4 -10 -1 -7 7 3 8 28 32 56 54
28 22 51 43 51 47 1 11 -38 -3 -50 -18 -6 -8 -16 -14 -22 -14 -6 0 1 13 16 28
15 15 27 34 27 40 0 7 19 33 43 59 24 26 34 44 24 40 -15 -6 -17 -3 -12 16 4
12 17 33 29 46 20 23 20 24 1 19 -11 -3 -28 -9 -37 -13 -31 -12 -21 18 26 78
104 135 197 305 243 447 34 107 47 214 32 277 -6 27 -3 35 16 47 22 14 23 14
30 -11 4 -16 2 -29 -5 -33 -8 -5 -7 -9 4 -13 23 -9 21 -90 -5 -207 -12 -52
-24 -120 -28 -150 -9 -73 -70 -198 -170 -353 -79 -122 -112 -185 -91 -172 6 3
28 32 50 63 22 31 60 82 84 112 61 76 172 299 202 406 33 117 41 257 21 344
-10 40 -12 69 -6 74 5 6 9 15 9 20 0 6 -5 3 -11 -8 -17 -27 -29 0 -17 35 13
38 4 122 -21 194 -12 33 -19 65 -16 73 3 8 0 10 -6 6 -8 -4 -9 1 -4 17 5 20 4
21 -5 9 -10 -12 -11 -11 -6 9 3 17 2 21 -6 13 -8 -8 -6 -22 5 -51 27 -67 38
-135 22 -138 -5 -2 -10 0 -10 5 -3 49 -62 217 -110 312 -22 44 -39 100 -31
100 2 0 14 -16 25 -36 28 -48 36 -38 17 20 -24 71 -20 68 32 -21 44 -75 80
-127 53 -76 -18 35 -13 51 7 18 84 -141 136 -363 108 -460 -7 -25 -6 -28 5
-17 21 20 18 163 -4 237 -23 75 -40 118 -89 225 -22 47 -40 98 -40 113 -1 16
-8 31 -15 34 -11 5 -12 8 -2 13 12 8 -16 51 -85 130 -26 29 -27 31 -6 16 14
-11 -2 7 -36 40 -65 64 -103 122 -124 190 -17 57 -91 147 -159 194 -31 21 -74
56 -97 77 -22 22 -61 52 -87 68 -26 17 -47 35 -47 41 0 15 -76 64 -178 114
-88 42 -108 49 -76 25 17 -13 17 -14 -13 -6 -17 5 -40 14 -50 20 -15 9 -13 10
12 6 28 -5 28 -5 6 5 -13 6 -33 8 -44 4 -12 -4 -17 -2 -13 4 4 7 -11 16 -36
23 -24 6 -47 14 -52 17 -5 3 -6 -1 -1 -8 6 -10 -5 -11 -54 -6 -33 4 -69 9 -78
12 -15 5 -16 4 -3 -5 8 -6 25 -11 38 -11 12 0 22 -5 22 -11 0 -13 -85 -5 -104
10 -11 8 -22 8 -63 -5 -15 -4 -23 -2 -23 5 0 7 4 10 9 6 5 -3 12 -1 16 5 3 6
-4 10 -17 10 -13 0 -93 2 -178 5 -85 2 -178 0 -206 -4z m330 -10 c22 0 37 -3
35 -5 -9 -9 -96 -15 -260 -20 -96 -3 -184 -7 -196 -10 -13 -3 -23 -1 -23 5 0
5 10 9 23 10 12 0 29 2 37 3 8 2 51 7 95 11 44 4 81 8 83 9 2 2 69 1 206 -3z
m366 -21 c20 -6 21 -8 5 -8 -11 0 -29 3 -40 8 -25 11 1 11 35 0z m100 -54 c70
-26 219 -105 277 -148 73 -54 67 -57 -9 -4 -80 56 -251 137 -348 166 -41 13
-79 26 -83 30 -10 9 94 -20 163 -44z m-555 35 c16 -1 13 -5 -15 -22 -19 -12
-38 -26 -42 -32 -3 -6 -13 -12 -22 -13 -8 -1 -34 -5 -58 -9 -24 -3 -79 -8
-123 -11 -44 -2 -89 -6 -101 -8 -11 -2 -27 0 -34 4 -8 5 13 11 53 15 37 4 64
11 61 16 -3 5 2 9 10 9 9 0 16 5 16 11 0 8 -19 10 -62 6 l-63 -5 50 14 c28 7
84 16 125 20 41 4 76 7 77 8 2 1 97 -1 128 -3z m-395 -20 c0 -5 -24 -14 -52
-19 -29 -6 -64 -13 -78 -17 -15 -4 -11 0 10 10 30 14 84 30 113 34 4 1 7 -3 7
-8z m43 2 c-7 -2 -19 -2 -25 0 -7 3 -2 5 12 5 14 0 19 -2 13 -5z m772 -6 c86
-21 275 -103 365 -159 65 -41 230 -171 230 -182 0 -6 -15 5 -34 23 -19 18 -41
31 -50 29 -11 -2 6 -20 52 -55 37 -28 77 -62 87 -75 24 -28 16 -22 -108 77
-67 54 -101 75 -106 67 -5 -9 -18 -5 -45 13 -71 48 -181 107 -253 136 -82 32
-242 79 -272 79 -11 0 -22 4 -25 8 -12 20 251 -38 284 -62 13 -10 13 -9 1 7
-14 18 -12 21 13 11 9 -3 13 -10 10 -15 -3 -5 3 -6 12 -2 12 4 15 3 10 -5 -4
-8 -2 -10 8 -6 16 6 101 -34 92 -43 -8 -9 46 -43 56 -36 9 5 88 -42 88 -53 0
-3 -12 3 -27 14 -39 26 -53 34 -53 28 0 -8 74 -50 92 -51 10 -1 27 -10 38 -20
11 -10 23 -16 26 -12 10 10 -126 104 -226 155 -52 28 -144 66 -205 85 -176 57
-178 58 -125 53 25 -3 54 -7 65 -9z m-995 -51 c-14 -7 -36 -16 -50 -20 -14 -3
-7 3 15 14 45 22 74 27 35 6z m757 -32 c-3 -3 -12 -4 -19 -1 -8 3 -5 6 6 6 11
1 17 -2 13 -5z m123 -14 c17 -6 9 -7 -25 -3 -27 3 -52 7 -54 9 -8 7 54 2 79
-6z m115 -24 c13 -2 20 -11 21 -25 1 -12 11 -29 23 -37 30 -22 26 -40 -5 -20
-14 10 -44 18 -67 20 -23 1 -54 10 -70 20 -27 18 -27 18 -27 -3 0 -11 -5 -21
-11 -21 -5 0 -7 5 -4 10 8 14 -8 13 -22 -1 -12 -12 -41 -1 -42 16 0 6 -32 16
-72 22 -39 7 -75 15 -78 19 -3 3 10 3 29 0 19 -4 69 -8 110 -10 41 -3 100 -7
130 -11 51 -7 53 -6 35 8 -11 8 -23 13 -27 11 -5 -3 -8 0 -8 6 0 7 11 9 33 5
17 -4 41 -8 52 -9z m121 -46 c42 -17 88 -32 103 -34 14 -1 65 -28 111 -58 47
-31 97 -58 112 -62 24 -5 138 -90 138 -103 0 -3 -7 0 -16 7 -13 11 -16 10 -20
-7 -5 -17 -12 -20 -37 -18 -18 2 -39 6 -48 10 -22 9 -31 -8 -20 -37 5 -12 19
-48 31 -78 l21 -54 -23 19 c-13 11 -35 32 -50 47 -14 14 -30 23 -34 20 -4 -4
-4 -2 0 5 4 8 -15 28 -52 55 -62 45 -122 109 -186 199 -21 30 -56 69 -78 87
-22 17 -38 32 -34 32 3 0 40 -14 82 -30z m-574 -33 c46 -43 75 -60 86 -53 4 2
25 -4 46 -15 45 -22 49 -23 41 -9 -3 6 -2 10 4 10 6 0 15 -8 20 -19 9 -17 5
-19 -50 -25 -33 -3 -98 -16 -143 -27 -83 -22 -123 -21 -148 4 -7 8 -20 11 -28
9 -13 -5 -13 -3 0 10 8 8 24 20 35 27 18 11 17 12 -9 6 -43 -9 -51 14 -14 41
17 13 43 26 59 29 16 4 31 10 34 15 6 9 -13 6 -107 -21 -66 -19 -67 -19 -98 0
l-31 19 28 7 c15 5 32 7 37 6 6 -1 19 2 30 8 27 13 50 16 114 16 46 0 57 -4
94 -38z m234 15 c-4 -22 -24 -22 -59 -3 -22 13 -24 17 -11 21 30 11 72 -1 70
-18z m544 2 c0 -2 -9 0 -20 6 -11 6 -20 13 -20 16 0 2 9 0 20 -6 11 -6 20 -13
20 -16z m-1042 -51 c7 -3 11 -11 9 -17 -4 -12 -5 -12 -99 -1 -35 3 -99 7 -143
7 -72 0 -76 1 -40 10 22 5 67 6 100 2 113 -12 126 -12 122 0 -2 6 -16 12 -32
14 -20 3 -25 6 -15 12 8 5 28 3 49 -7 20 -8 42 -17 49 -20z m1361 -110 c42
-42 64 -70 49 -60 -14 9 -55 45 -90 79 -35 35 -79 75 -98 91 -35 27 -35 27 14
-2 27 -17 83 -65 125 -108z m-839 112 c0 -9 -6 -12 -16 -8 -13 5 -13 7 -2 14
17 11 18 11 18 -6z m-855 -25 c-11 -5 -27 -9 -35 -9 -9 0 -8 4 5 9 11 5 27 9
35 9 9 0 8 -4 -5 -9z m390 -30 c-3 -5 -11 -10 -16 -10 -6 0 -7 5 -4 10 3 6 11
10 16 10 6 0 7 -4 4 -10z m544 -74 c16 -9 50 -42 74 -73 25 -32 60 -71 78 -88
31 -28 32 -28 10 -3 -14 16 -23 30 -20 32 7 6 310 -352 400 -473 97 -131 208
-314 180 -297 -6 4 -1 -20 11 -53 21 -59 21 -61 3 -81 -10 -11 -23 -20 -30
-20 -21 0 -66 61 -97 129 -17 36 -39 79 -50 94 -11 15 -18 34 -15 41 7 17 -79
172 -93 168 -6 -1 -9 2 -5 8 5 9 -101 170 -165 250 -16 20 -19 21 -14 5 7 -18
4 -18 -19 4 -15 14 -27 21 -27 17 0 -18 -63 29 -76 57 -9 18 -29 40 -45 49
-16 10 -29 23 -29 30 0 17 -38 41 -70 44 -14 1 -38 5 -55 9 -16 3 -47 1 -67
-6 -36 -12 -39 -11 -83 25 -25 21 -70 53 -100 71 l-55 33 47 11 c25 7 76 14
112 17 36 3 67 6 68 7 10 11 108 5 132 -7z m-323 -105 c72 -47 147 -111 130
-111 -1 0 -44 25 -94 55 -50 30 -96 55 -101 55 -10 0 -41 39 -41 52 0 16 20 7
106 -51z m-236 -20 c0 -5 -14 -11 -32 -13 -28 -5 -29 -4 -13 9 21 15 45 17 45
4z m-74 -10 c-3 -5 -17 -11 -31 -13 -20 -4 -23 -3 -14 8 12 15 54 20 45 5z
m-96 -15 c0 -2 -8 -10 -17 -17 -16 -13 -17 -12 -4 4 13 16 21 21 21 13z m188
-13 c-10 -2 -26 -2 -35 0 -10 3 -2 5 17 5 19 0 27 -2 18 -5z m192 -23 c22 -11
40 -22 40 -24 0 -5 -51 0 -92 10 -32 7 -38 34 -8 34 12 0 39 -9 60 -20z m-172
-96 c-16 -39 -16 -39 -33 -24 -24 20 -19 58 8 62 32 6 40 -5 25 -38z m304 5
c18 -7 28 -19 29 -33 0 -11 2 -31 5 -43 4 -22 1 -23 -55 -23 -32 0 -82 -5
-111 -10 -41 -8 -56 -7 -61 2 -4 7 -5 16 -3 20 3 4 2 8 -1 8 -3 0 -12 -15 -20
-32 -8 -18 -14 -25 -15 -16 0 16 17 110 25 134 4 15 168 9 207 -7z m749 -51
c29 -40 56 -75 59 -78 14 -13 187 -247 200 -270 8 -15 23 -43 34 -61 10 -19
27 -42 36 -51 27 -26 82 -175 78 -212 l-4 -31 -8 30 c-22 86 -104 265 -121
265 -6 0 -19 17 -30 37 -11 20 -33 53 -49 72 -15 20 -49 67 -74 106 -25 38
-71 100 -103 138 -47 56 -89 127 -75 127 2 0 27 -33 57 -72z m-1357 23 c18
-19 17 -20 -15 -16 -19 3 -47 8 -64 12 l-30 7 30 7 c50 11 61 10 79 -10z
m1131 -200 c93 -133 156 -238 225 -373 39 -76 69 -138 66 -138 -3 0 -15 18
-26 40 -11 22 -25 40 -30 40 -15 0 -12 -9 16 -57 14 -25 24 -46 22 -48 -1 -2
-25 34 -53 81 -27 46 -52 79 -56 73 -5 -9 -49 39 -49 54 0 10 -110 188 -159
257 -38 55 -106 143 -180 235 -9 11 2 4 24 -15 50 -44 137 -152 210 -264 31
-47 61 -84 66 -81 4 3 18 -13 29 -36 12 -22 16 -38 10 -34 -9 6 -9 2 -1 -14 7
-11 14 -21 17 -21 3 0 2 5 -1 10 -3 6 -4 10 -1 10 11 0 37 -61 30 -72 -4 -6
-3 -8 3 -5 5 3 20 -12 32 -34 13 -22 25 -38 28 -35 3 3 -20 53 -51 112 -72
134 -199 325 -335 500 -9 11 14 -11 51 -50 37 -38 88 -99 113 -135z m-260 130
c24 -26 54 -60 67 -76 19 -26 20 -28 3 -16 -11 8 -1 -3 22 -25 35 -32 166
-214 160 -221 -1 -1 -29 1 -62 4 l-61 5 -44 122 c-25 66 -44 126 -44 133 1 6
-4 9 -11 7 -6 -3 -25 12 -40 32 -16 21 -23 34 -17 30 21 -13 13 7 -15 37 -16
17 -22 27 -15 23 7 -4 33 -29 57 -55z m-990 39 c18 -8 18 -9 -5 -9 -14 0 -34
4 -45 9 -18 8 -18 9 5 9 14 0 34 -4 45 -9z m1685 -142 c0 -5 5 -8 11 -8 5 0 7
5 3 12 -4 7 -3 8 5 4 6 -4 9 -11 6 -16 -3 -5 -1 -11 4 -15 20 -12 141 -253
135 -268 -3 -8 -1 -18 5 -22 6 -3 11 -13 11 -22 0 -13 -3 -13 -15 -3 -8 7 -13
16 -10 20 3 5 2 10 -2 12 -5 1 -25 30 -47 63 -47 73 -126 182 -183 252 -65 81
-73 105 -17 53 27 -25 42 -36 33 -25 -8 11 -27 40 -43 65 -25 41 -22 39 38
-25 36 -38 66 -73 66 -77z m-1733 125 c-4 -4 21 -14 55 -23 247 -67 303 -82
306 -85 6 -6 -23 -45 -37 -50 -38 -15 -279 90 -336 146 -19 18 -19 19 -1 19
11 0 16 -3 13 -7z m1345 -158 c19 -18 -20 49 -51 89 -31 39 -43 62 -17 36 28
-31 118 -164 97 -146 -29 27 -26 12 9 -41 17 -24 30 -46 30 -49 0 -3 17 -31
38 -62 35 -53 62 -105 62 -119 0 -4 -24 33 -53 83 -67 112 -139 223 -194 296
-24 31 -43 60 -43 64 0 4 25 -26 56 -67 30 -41 60 -78 66 -84z m-532 113 c0
-4 -6 -8 -12 -9 -7 0 -3 -5 9 -11 31 -15 39 -39 10 -30 -44 14 -167 -1 -209
-26 -34 -20 -42 -13 -28 24 9 22 8 26 0 18 -7 -7 -13 -23 -13 -36 -1 -14 -7
-25 -13 -25 -7 0 -6 13 4 39 13 32 22 40 56 49 23 5 46 11 51 13 22 7 145 2
145 -6z m-968 -6 c2 -4 26 -26 53 -48 50 -40 67 -49 205 -110 41 -19 67 -34
56 -34 -32 0 -234 91 -263 119 -48 45 -77 81 -66 81 6 0 13 -3 15 -8z m-66
-43 c-13 -10 -27 -19 -29 -19 -3 0 -21 -13 -39 -30 -18 -16 -28 -30 -21 -30 6
0 16 7 23 15 19 23 30 19 77 -27 23 -23 45 -39 48 -36 7 7 -43 60 -70 76 -19
10 -19 12 -3 28 17 17 19 17 50 -11 l33 -30 -29 33 c-46 51 -6 41 62 -15 31
-25 48 -43 38 -39 -16 6 -17 4 -5 -10 11 -13 10 -17 -4 -25 -29 -16 -19 -42
32 -85 l48 -40 -23 -28 c-13 -15 -24 -23 -24 -19 0 5 6 15 13 23 6 8 2 6 -9
-3 -21 -18 -22 -18 -35 0 -14 19 -117 83 -212 131 -48 25 -49 41 -2 42 18 1
18 2 -3 11 -13 5 -28 7 -33 3 -5 -3 -9 0 -9 5 0 14 133 111 143 104 4 -2 -3
-13 -17 -24z m1955 4 c13 -16 12 -17 -3 -4 -17 13 -22 21 -14 21 2 0 10 -8 17
-17z m-143 -109 c19 -22 42 -57 53 -79 10 -22 46 -74 79 -115 55 -69 129 -214
116 -227 -3 -3 -8 6 -12 21 -3 14 -10 23 -15 20 -5 -3 -6 3 -2 12 5 13 3 15
-7 9 -10 -6 -12 -4 -7 9 4 10 3 15 -3 11 -5 -3 -21 18 -36 47 -28 56 -41 75
-164 241 -44 60 -80 112 -80 117 0 4 -7 13 -15 20 -8 7 -15 18 -15 24 0 10 35
-24 108 -110z m-547 -84 c12 -30 22 -66 23 -80 2 -14 6 -32 9 -40 19 -47 47
-156 52 -205 l7 -57 -46 31 c-62 43 -59 32 4 -13 35 -25 50 -43 50 -58 0 -13
-4 -18 -8 -12 -4 6 -33 29 -65 53 -36 26 -55 46 -50 54 4 6 8 18 9 27 1 8 6
34 12 57 5 23 7 45 3 50 -3 4 2 1 12 -6 15 -12 17 -10 17 16 0 16 -11 62 -25
102 -13 40 -24 76 -23 79 3 10 -21 52 -52 92 -15 19 -31 51 -34 70 -6 31 -2
28 38 -35 26 -38 55 -95 67 -125z m-393 142 c8 -5 -7 -14 -41 -25 -30 -9 -57
-17 -62 -17 -18 0 20 31 49 39 41 12 39 12 54 3z m1422 -171 c39 -89 77 -192
86 -229 9 -37 22 -71 28 -77 15 -13 20 -139 6 -130 -7 4 -9 -2 -4 -19 3 -14 3
-37 0 -51 -14 -54 -21 -19 -21 100 0 98 -3 128 -14 135 -8 4 -20 28 -27 52
-24 84 -81 234 -112 294 -28 55 -41 117 -19 95 4 -4 39 -81 77 -170z m-1200
143 c5 -5 -29 -9 -85 -9 -52 0 -95 3 -95 7 0 15 165 17 180 2z m-191 -8 c-9
-10 -59 -14 -54 -5 4 5 18 9 32 9 15 0 24 -2 22 -4z m651 -92 c23 -36 40 -67
38 -69 -4 -4 -88 120 -88 130 0 13 10 0 50 -61z m85 40 c9 -15 12 -23 6 -20
-11 7 -35 46 -28 46 3 0 12 -12 22 -26z m-341 -81 c9 -25 14 -49 11 -51 -5 -5
-18 27 -29 71 -10 43 1 31 18 -20z m914 -77 c40 -82 50 -120 35 -129 -5 -3 -9
5 -9 18 -1 12 -18 50 -37 83 -34 59 -58 130 -40 119 5 -4 28 -44 51 -91z
m-1070 -1 c25 -21 30 -34 35 -87 4 -35 8 -75 10 -90 l4 -27 -41 20 c-39 19
-32 9 17 -24 10 -7 20 -24 21 -39 3 -30 4 -30 -62 15 -24 16 -45 27 -47 25 -6
-5 117 -86 141 -94 17 -5 18 -4 3 8 -14 11 -15 17 -4 32 11 14 15 15 22 4 4
-8 48 -45 98 -83 105 -79 210 -185 267 -270 l40 -60 -42 48 c-23 26 -46 47
-51 47 -19 0 -1 -44 41 -97 63 -81 18 -44 -85 70 -118 130 -126 138 -221 218
-45 38 -99 76 -120 84 l-39 16 30 -23 c16 -13 33 -23 36 -23 4 0 29 -18 56
-40 52 -42 90 -85 75 -85 -9 0 -15 5 -93 74 -78 69 -219 149 -235 133 -3 -3
21 -23 53 -45 32 -22 65 -48 73 -57 8 -9 40 -35 72 -56 32 -22 58 -42 58 -45
0 -3 -19 8 -42 24 -53 35 -138 84 -138 79 0 -2 39 -37 88 -77 109 -93 252
-230 252 -244 0 -5 -12 1 -27 15 -26 22 -27 22 -9 1 11 -12 31 -28 45 -35 14
-7 26 -17 26 -23 0 -5 15 -29 33 -52 19 -23 29 -42 22 -42 -6 0 -9 -4 -6 -8
12 -20 -26 -6 -46 17 l-23 25 27 -17 c35 -22 47 -22 22 1 -84 74 -165 143
-199 167 -22 17 -42 32 -45 35 -3 3 -36 28 -75 55 -73 52 -188 163 -237 229
l-28 39 22 16 c13 9 23 22 23 29 0 29 20 9 25 -25 5 -34 6 -36 16 -18 12 22
18 81 17 168 0 49 4 63 23 82 13 13 36 26 51 28 16 2 31 5 35 6 3 0 20 -10 36
-24z m407 5 c3 -5 1 -10 -4 -10 -6 0 -11 5 -11 10 0 6 2 10 4 10 3 0 8 -4 11
-10z m-186 -163 c13 -48 25 -100 27 -114 3 -15 11 -34 17 -42 9 -12 9 -13 0
-7 -30 18 -9 -14 29 -45 48 -38 87 -80 131 -142 23 -33 13 -26 -49 35 -44 42
-93 88 -110 102 -29 24 -41 56 -21 56 5 0 5 5 -1 13 -9 10 -22 62 -56 224 -1
7 -5 16 -9 19 -4 4 -7 12 -7 18 0 31 30 -41 49 -117z m-1043 98 c-11 -8 -25
-15 -30 -15 -6 1 0 7 14 15 32 19 40 18 16 0z m224 -20 c-7 -9 -15 -13 -18
-10 -3 2 1 11 8 20 7 9 15 13 18 10 3 -2 -1 -11 -8 -20z m210 6 c0 -5 -9 -13
-21 -16 -11 -4 -18 -9 -16 -12 3 -2 22 5 43 16 72 39 57 21 -27 -32 -137 -87
-340 -207 -334 -197 4 6 2 10 -3 10 -21 0 -6 33 27 59 41 31 61 44 61 38 0 -9
-46 -55 -59 -59 -8 -2 -15 -12 -17 -21 -1 -9 2 -15 7 -11 5 3 7 10 4 15 -3 5
0 6 7 4 8 -3 25 6 38 20 13 14 59 47 102 72 84 49 108 71 31 29 -48 -27 -71
-27 -37 0 21 17 173 94 186 94 4 0 8 -4 8 -9z m-243 -27 c-3 -3 -12 -4 -19 -1
-8 3 -5 6 6 6 11 1 17 -2 13 -5z m407 -86 c-9 -9 -26 -20 -36 -24 -11 -3 -28
-13 -37 -21 -9 -7 -40 -27 -69 -44 l-52 -29 0 23 c0 18 16 34 75 71 41 26 75
49 75 51 0 9 -60 -15 -108 -44 -29 -17 -72 -41 -95 -53 -68 -34 -27 5 71 69
46 30 91 63 100 74 16 18 17 18 54 -18 35 -34 37 -38 22 -55z m912 -43 c45
-95 24 -80 -26 19 -28 55 -50 102 -50 104 0 11 55 -78 76 -123z m-200 84 c8
-17 17 -38 19 -47 2 -10 6 -30 10 -47 5 -16 5 -28 3 -25 -7 6 -58 134 -58 143
0 15 10 5 26 -24z m-1646 -9 c-27 -21 -50 -26 -50 -11 0 5 12 14 28 19 42 16
49 13 22 -8z m2272 -12 c-2 -10 -6 -18 -7 -18 -1 0 -5 8 -7 18 -3 11 0 19 7
19 7 0 10 -8 7 -19z m-616 -128 c63 -157 127 -270 193 -340 11 -11 11 -15 1
-18 -26 -9 -116 115 -172 236 -22 48 -47 103 -56 122 -9 19 -17 49 -18 65 -1
17 -5 41 -9 55 -9 35 30 -40 61 -120z m679 -20 c2 -30 1 -47 -1 -37 -3 9 -9
17 -14 17 -11 0 -31 69 -28 101 1 13 -2 35 -5 49 -4 14 4 3 18 -25 16 -30 28
-72 30 -105z m-1775 126 c0 -3 -4 -8 -10 -11 -5 -3 -10 -1 -10 4 0 6 5 11 10
11 6 0 10 -2 10 -4z m1165 -49 c23 -41 36 -80 15 -47 -7 11 -10 11 -10 2 0
-26 -18 -1 -25 35 -4 21 -12 41 -18 45 -9 6 -9 8 0 8 7 0 24 -20 38 -43z
m-223 -112 l29 -70 -36 35 c-41 39 -65 80 -64 107 0 11 6 6 15 -14 18 -43 24
-42 18 5 -5 40 -4 40 38 -63z m109 28 c17 -38 46 -99 65 -137 38 -78 39 -80
22 -70 -7 4 -8 3 -4 -5 4 -6 11 -9 16 -6 10 6 55 -50 55 -68 0 -7 8 -25 19
-40 26 -38 14 -44 -19 -10 -118 122 -255 374 -190 349 18 -6 18 -5 5 28 -19
52 1 24 31 -41z m-1215 25 c-4 -26 -20 -40 -134 -115 -216 -142 -313 -224
-334 -283 -5 -12 -7 -12 -13 3 -5 12 0 26 15 42 17 19 21 31 17 57 -6 33 -6
33 79 75 47 23 82 38 79 33 -14 -23 18 -7 91 46 99 71 167 125 177 141 10 17
26 17 23 1z m314 -18 c0 -5 -15 -17 -32 -25 l-33 -16 30 25 c34 29 35 30 35
16z m1020 -45 c1 -33 116 -232 127 -221 4 3 -1 14 -10 24 -10 10 -17 25 -17
33 0 8 -9 25 -20 39 -11 14 -19 32 -19 40 0 8 5 4 11 -10 6 -14 12 -20 15 -13
2 6 -8 35 -22 63 -15 29 -24 54 -22 56 7 7 100 -189 99 -208 0 -10 4 -17 11
-15 6 1 11 -5 12 -13 1 -32 21 -18 35 24 8 25 18 47 21 51 7 6 79 -20 79 -29
0 -2 -28 -23 -62 -45 l-62 -41 -23 22 c-26 25 -31 14 -6 -14 9 -10 12 -18 7
-18 -19 1 -98 119 -145 217 -27 56 -49 106 -49 110 1 11 39 -40 40 -52z m-905
-52 c-3 -66 -8 -91 -22 -107 -18 -21 -18 -21 -21 27 -2 26 -8 47 -13 47 -6 0
-9 6 -6 13 2 6 0 23 -5 36 -7 21 -4 28 19 47 47 39 51 33 48 -63z m-553 55
c-6 -7 -25 -22 -44 -32 -36 -20 -30 -12 16 22 32 25 44 28 28 10z m1917 -22
c10 -12 8 -13 -8 -9 -20 5 -27 -9 -22 -40 1 -5 -8 -16 -20 -26 -18 -14 -38
-17 -97 -15 -77 3 -85 5 -88 29 -3 22 3 24 132 41 21 2 47 11 59 19 26 18 30
18 44 1z m-1785 -28 c-5 -8 -2 -9 10 -5 10 4 15 3 11 -4 -4 -5 -16 -7 -27 -3
-12 4 -18 2 -14 -4 6 -10 -65 -62 -84 -62 -13 0 -13 -17 0 -25 13 -8 -6 -35
-24 -35 -6 0 -3 7 7 14 16 12 16 14 2 20 -9 3 -14 2 -11 -3 3 -5 -1 -11 -9
-15 -8 -3 -15 -1 -15 4 0 16 -33 11 -60 -9 -18 -14 -24 -29 -25 -58 0 -21 3
-41 7 -44 9 -6 -116 -99 -132 -99 -23 0 -6 23 54 72 36 29 63 55 61 57 -2 2
-22 -11 -43 -28 -52 -41 -107 -42 -69 -2 10 11 9 13 -3 7 -8 -4 -1 4 16 18 34
29 171 114 253 158 30 16 63 35 75 43 25 18 29 19 20 3z m-769 -73 c4 -33 11
-67 15 -75 4 -8 11 -37 15 -65 5 -27 9 -53 11 -57 1 -5 2 -17 3 -29 0 -11 5
-18 10 -15 4 3 7 -6 5 -19 -1 -14 3 -25 9 -25 5 0 8 -2 5 -6 -3 -3 3 -37 14
-77 22 -85 26 -100 27 -108 1 -4 11 -9 24 -13 13 -3 40 -32 65 -71 46 -70 67
-79 110 -50 17 13 26 14 44 4 23 -12 23 -11 5 8 -10 11 -20 33 -23 49 -2 16
-7 39 -9 52 -3 12 -1 21 4 20 5 -2 33 31 63 72 33 46 61 74 71 74 12 -1 14 2
8 14 -7 12 5 27 48 64 31 26 61 48 66 48 17 0 100 -91 128 -140 33 -58 104
-238 107 -270 4 -49 -1 -44 -31 28 -36 83 -49 93 -18 13 32 -86 16 -82 -30 7
-24 45 -47 79 -52 76 -5 -3 -7 1 -4 8 8 21 -70 104 -120 127 -61 28 -71 26
-14 -4 47 -24 109 -81 109 -100 0 -6 -7 -21 -16 -33 -15 -21 -13 -28 20 -108
20 -47 36 -91 35 -97 0 -7 -3 -5 -7 3 -10 21 -144 222 -160 239 -7 7 -14 12
-16 10 -9 -13 -46 -124 -46 -139 0 -29 -25 -41 -89 -44 -33 -1 -65 -6 -70 -11
-6 -6 -11 -32 -13 -60 l-3 -50 -47 46 c-27 27 -58 72 -74 107 -15 34 -32 59
-37 55 -6 -3 -7 -1 -3 5 4 7 2 20 -4 29 -11 17 -11 17 -6 1 12 -40 -7 -14 -38
52 -18 38 -36 67 -38 64 -6 -5 -37 111 -44 165 -8 61 -13 105 -13 120 -1 11
-6 10 -21 -4 -25 -22 -42 -82 -36 -126 2 -19 7 -59 11 -89 6 -52 61 -225 99
-315 l17 -40 -20 25 c-11 14 -34 53 -51 87 -76 153 -93 358 -37 457 22 39 27
61 27 114 0 79 6 78 15 -3z m1028 11 c-3 -16 -10 -23 -19 -19 -17 6 -18 40 -1
46 19 7 25 -1 20 -27z m-851 -64 c16 -77 24 -64 9 16 -10 53 2 64 17 14 6 -20
18 -63 27 -95 10 -36 21 -55 27 -50 8 4 9 0 5 -11 -4 -10 -2 -26 4 -38 8 -15
7 -24 -8 -40 -25 -28 -57 -44 -50 -26 2 7 8 12 13 11 5 -1 15 10 21 24 10 21
10 23 -3 13 -11 -10 -14 -9 -15 6 -1 17 -2 17 -6 2 -9 -36 -31 -18 -43 35 -20
93 -34 234 -21 222 3 -3 13 -41 23 -83z m593 68 c-9 -15 -82 -50 -88 -43 -11
11 3 22 20 16 11 -4 14 -3 9 5 -4 7 -2 10 6 7 8 -3 22 1 33 9 24 18 28 19 20
6z m896 -7 c13 -16 12 -17 -3 -4 -10 7 -18 15 -18 17 0 8 8 3 21 -13z m-718
-28 c4 -8 2 -17 -4 -21 -5 -3 -7 -14 -4 -24 4 -12 -1 -19 -15 -23 -17 -4 -19
-9 -11 -30 12 -30 12 -147 0 -147 -4 0 -9 5 -11 12 -3 7 -12 9 -22 5 -16 -7
-16 -9 2 -35 19 -26 20 -76 2 -87 -7 -4 -140 244 -140 262 0 10 168 102 186
103 7 0 14 -7 17 -15z m-193 -2 c0 -9 -52 -35 -58 -29 -2 3 9 11 25 20 33 18
33 18 33 9z m-70 -42 c0 -5 -7 -12 -16 -15 -14 -5 -15 -4 -4 9 14 17 20 19 20
6z m1927 -73 c-9 -76 -33 -148 -42 -125 -4 9 -2 31 5 47 7 17 14 47 15 68 2
20 4 43 4 50 1 6 6 12 12 12 8 0 10 -17 6 -52z m-1857 -20 c30 -66 24 -76 -14
-23 -19 27 -33 52 -30 57 11 18 26 6 44 -34z m-38 -20 c32 -42 88 -147 88
-164 0 -8 -6 -11 -15 -8 -8 4 -12 10 -9 15 3 5 1 9 -4 9 -5 0 -15 14 -22 30
-7 17 -28 56 -46 87 -37 61 -38 63 -25 63 5 0 20 -15 33 -32z m1334 20 c5 4 6
3 1 -2 -4 -5 2 -20 14 -32 12 -12 19 -28 17 -35 -2 -7 -19 9 -38 37 -19 27
-27 43 -19 37 9 -7 20 -9 25 -5z m-539 -20 c44 -19 206 -143 231 -177 27 -38
28 -55 2 -48 -11 3 -18 1 -15 -4 3 -4 -7 -15 -23 -23 l-30 -15 -16 42 c-19 48
-69 110 -81 99 -5 -4 -5 -2 -2 4 4 7 -8 23 -27 38 -56 42 -69 58 -56 66 9 6 7
11 -6 19 -26 14 -12 14 23 -1z m-1680 -45 c-3 -10 -5 -2 -5 17 0 19 2 27 5 18
2 -10 2 -26 0 -35z m1531 1 c26 -15 81 -50 122 -79 63 -44 79 -51 99 -44 18 7
27 5 42 -12 28 -33 43 -87 29 -104 -10 -12 -9 -15 3 -15 8 0 17 4 19 10 2 5
21 16 43 25 l40 16 -30 -26 c-47 -40 -64 -40 -130 -1 -69 41 -324 228 -324
238 -1 3 7 9 17 11 9 3 18 5 20 6 2 0 24 -11 50 -25z m-1504 -107 c8 -38 11
-65 7 -60 -9 10 -31 108 -30 131 1 24 7 6 23 -71z m1925 37 c28 -25 51 -53 51
-61 0 -15 -80 51 -108 89 -24 33 5 19 57 -28z m-1644 -13 c-4 -52 -6 -57 -15
-36 -13 31 -11 62 3 62 9 0 13 -10 12 -26z m1855 -142 c0 -6 7 -18 16 -27 11
-11 13 -17 5 -20 -6 -2 -8 -9 -5 -14 4 -6 3 -8 -3 -5 -5 3 -27 -8 -48 -26 -41
-33 -60 -35 -107 -11 -16 8 -28 12 -28 10 0 -3 12 -12 28 -20 32 -18 18 -21
-26 -5 l-31 10 21 24 c17 20 25 22 46 14 33 -13 76 14 69 42 -4 14 3 23 21 33
28 14 42 13 42 -5z m-859 -59 c38 -54 62 -80 43 -47 -10 18 7 0 51 -56 34 -42
111 -94 123 -83 2 3 54 -27 115 -66 165 -104 294 -166 313 -150 4 4 4 2 0 -5
-13 -23 -139 6 -259 59 -112 50 -190 100 -279 180 -74 66 -184 211 -173 228 9
15 20 6 66 -60z m659 56 c0 -18 -88 -68 -95 -55 -4 5 2 9 11 9 10 0 14 3 10 7
-4 4 10 17 31 30 45 27 43 27 43 9z m-272 -27 c32 -18 52 -35 49 -43 -4 -9 2
-11 18 -8 27 5 40 -11 21 -27 -11 -9 -20 -6 -42 12 -16 13 -43 32 -60 41 -30
18 -62 56 -47 56 5 0 32 -14 61 -31z m827 21 c3 -5 1 -10 -4 -10 -6 0 -11 5
-11 10 0 6 2 10 4 10 3 0 8 -4 11 -10z m-2098 -96 c36 -34 37 -35 6 -15 -39
26 -73 72 -72 98 0 12 5 7 15 -14 8 -18 31 -49 51 -69z m1129 34 c25 -18 76
-49 112 -70 36 -20 75 -49 86 -64 13 -18 15 -25 6 -20 -59 34 -278 173 -289
184 -27 27 37 4 85 -30z m898 -10 c10 -34 15 -83 14 -138 -2 -47 1 -98 5 -113
6 -21 5 -27 -4 -21 -8 4 -9 3 -5 -5 5 -7 -3 -29 -18 -52 -15 -21 -23 -39 -19
-39 19 -1 -24 -20 -44 -20 -21 0 -21 0 -3 37 11 23 15 44 10 53 -4 8 -6 38 -4
65 7 75 7 75 -10 164 -19 101 -19 105 0 61 14 -31 17 -33 24 -15 4 11 4 28 -1
37 -12 23 -11 37 1 18 8 -13 10 -12 10 3 0 38 29 15 44 -35z m-288 -34 c-34
-25 -52 -17 -26 11 17 18 27 22 34 14 8 -7 5 -15 -8 -25z m-336 -4 c0 -5 -5
-10 -11 -10 -5 0 -7 5 -4 10 3 6 8 10 11 10 2 0 4 -4 4 -10z m-98 -118 c56
-34 129 -72 161 -84 31 -11 57 -25 57 -29 0 -17 -31 -9 -104 25 -52 23 -73 29
-73 20 0 -8 5 -14 11 -13 24 3 37 -2 31 -11 -4 -6 1 -7 11 -3 13 5 15 3 9 -7
-5 -9 -4 -11 3 -6 6 4 38 -7 71 -24 62 -33 144 -43 205 -25 23 6 27 5 21 -5
-5 -9 -4 -11 4 -6 6 4 9 11 6 16 -3 5 3 14 13 19 26 14 90 109 97 146 13 59
15 62 30 35 24 -42 18 -91 -17 -150 -65 -107 -211 -148 -358 -99 -84 27 -125
48 -237 121 -94 61 -118 82 -62 53 52 -28 41 -11 -31 45 -38 30 -68 56 -66 58
2 2 22 -6 45 -17 59 -30 66 -26 23 15 l-37 36 42 -24 c22 -12 88 -51 145 -86z
m247 54 c39 -14 65 -30 67 -39 2 -13 -4 -15 -29 -10 -43 8 -107 44 -107 60 0
16 -7 17 69 -11z m-118 -67 c3 -6 9 -7 11 -3 3 5 4 4 2 -2 -1 -6 12 -16 29
-22 55 -19 186 -42 212 -38 14 3 25 1 25 -4 0 -32 -182 -15 -228 21 -13 10
-45 25 -72 34 -61 20 -71 32 -23 28 20 -1 40 -8 44 -14z m243 12 c3 -4 -6 -6
-19 -3 -14 2 -25 6 -25 8 0 8 39 4 44 -5z m-1899 -81 c32 -44 62 -77 67 -74 5
3 7 0 6 -7 -2 -7 3 -13 11 -14 7 0 25 -16 38 -35 21 -29 21 -31 3 -10 -13 14
-26 24 -31 23 -11 -4 -93 90 -128 147 -17 28 -29 50 -27 50 2 0 30 -36 61 -80z
m2318 61 c2 -10 1 -25 -4 -32 -6 -10 -9 -4 -9 19 0 36 5 42 13 13z m-2395 -79
c17 -21 21 -23 16 -7 -4 13 4 7 22 -15 43 -52 77 -87 68 -71 -4 8 16 -8 44
-34 28 -27 49 -51 45 -54 -3 -3 -8 0 -10 7 -3 6 -9 12 -15 12 -6 0 -3 -9 7
-20 10 -11 24 -20 32 -20 7 0 13 -4 13 -9 0 -5 8 -12 18 -15 10 -4 24 -23 31
-44 8 -20 16 -43 18 -49 3 -7 -33 25 -81 72 -47 47 -89 85 -93 85 -5 0 -14 9
-21 20 -12 20 -12 21 13 4 14 -9 25 -12 25 -6 0 14 -38 35 -50 27 -5 -3 -13 3
-19 12 -6 10 -11 13 -11 7 0 -5 11 -25 24 -43 13 -18 29 -44 35 -59 7 -15 59
-67 116 -116 58 -49 103 -91 101 -94 -9 -8 -118 70 -149 106 -18 20 -63 69
-102 108 -72 74 -80 84 -128 171 -24 45 -26 56 -16 75 l12 22 16 -23 c9 -12
26 -34 39 -49z m2359 36 c-3 -8 -6 -5 -6 6 -1 11 2 17 5 13 3 -3 4 -12 1 -19z
m-2402 -94 c9 -15 12 -23 6 -20 -11 7 -35 46 -28 46 3 0 12 -12 22 -26z m2540
-43 c-3 -6 -11 -11 -17 -11 -6 0 -6 6 2 15 14 17 26 13 15 -4z m-311 -26 c-4
-8 -10 -15 -15 -15 -5 0 -9 -7 -9 -16 0 -8 -4 -12 -10 -9 -6 4 -4 16 6 31 18
26 37 33 28 9z m-904 -85 l25 -20 -25 4 c-14 1 -23 5 -20 7 3 3 -11 20 -30 38
-32 30 -32 31 -5 12 17 -11 41 -30 55 -41z m926 43 c-2 -3 -7 -3 -10 -1 -4 2
-15 -10 -25 -27 -17 -28 -126 -103 -136 -93 -9 8 8 48 20 48 16 0 100 47 114
64 6 7 18 13 26 13 8 0 13 -2 11 -4z m-639 -24 c105 -41 224 -69 298 -70 89
-1 69 -14 -26 -18 -44 -1 -84 7 -174 38 -65 22 -122 44 -128 50 -14 14 -6 14
30 0z m-887 -89 c28 -11 48 -48 184 -319 84 -168 167 -331 183 -361 16 -30 33
-64 36 -74 6 -16 5 -17 -8 -6 -8 7 -33 14 -54 15 -65 5 -74 15 -77 84 -1 37
-8 69 -16 79 -8 9 -26 36 -38 60 -13 23 -27 37 -30 32 -26 -41 -121 84 -240
314 -8 16 -25 33 -38 39 -19 9 -21 15 -16 46 4 20 13 51 20 70 8 18 14 42 14
51 0 27 23 30 37 5 7 -12 26 -28 43 -35z m762 -26 c18 -5 26 -24 10 -24 -4 0
-8 -12 -7 -26 0 -20 -6 -28 -23 -30 -13 -3 -25 2 -28 11 -4 8 -13 15 -21 15
-8 0 -26 9 -40 20 -16 12 -41 20 -64 20 l-39 0 0 -53 c0 -60 24 -182 65 -332
29 -108 39 -130 33 -76 -3 29 0 34 21 38 19 3 22 0 16 -14 -3 -10 -18 -53 -32
-96 -26 -79 -30 -84 -38 -51 -2 11 -12 53 -23 94 -11 41 -34 145 -52 230 -17
85 -34 157 -36 159 -8 9 -4 -36 11 -104 8 -38 12 -71 10 -73 -5 -5 -11 19 -34
133 -36 178 -36 167 -4 158 52 -14 104 -5 130 23 13 15 22 32 19 39 -2 7 21
-3 51 -21 31 -19 65 -36 75 -40z m-888 18 c-4 -9 -6 -26 -5 -37 1 -12 -2 -32
-7 -45 -9 -23 -10 -22 -16 17 -6 32 -3 49 11 73 18 31 32 25 17 -8z m-38 -37
c1 -58 -1 -64 -15 -53 -9 7 -5 0 8 -15 27 -30 21 -49 -7 -24 -22 20 -42 22
-42 5 0 -14 -11 -4 -14 14 -2 7 -10 30 -20 50 -9 21 -16 43 -16 50 0 15 26
-32 33 -59 2 -10 7 0 12 25 5 31 12 42 25 42 10 0 20 7 24 15 9 25 11 18 12
-50z m479 56 c3 -5 19 -12 35 -16 25 -5 30 -12 31 -36 1 -16 2 -32 3 -36 2 -5
6 -35 10 -68 5 -33 10 -69 12 -80 9 -45 16 -135 11 -135 -7 0 -57 101 -57 115
0 7 -25 65 -55 129 -57 121 -61 131 -46 121 5 -3 12 -1 16 5 8 13 32 13 40 1z
m1107 -24 c-12 -13 -20 -26 -17 -29 3 -3 -6 -8 -20 -12 -14 -4 -25 -11 -25
-16 0 -6 -20 -19 -45 -31 -43 -20 -59 -39 -33 -39 6 0 19 -7 29 -16 15 -13 24
-14 49 -6 l30 11 -17 -23 c-10 -13 -22 -21 -27 -18 -5 3 -6 0 -2 -6 4 -7 -4
-23 -18 -37 -14 -14 -26 -28 -26 -30 0 -3 0 -10 0 -16 0 -5 -5 -7 -12 -3 -6 4
-8 3 -4 -4 3 -6 0 -16 -7 -24 -14 -13 -17 -21 -17 -39 0 -5 -4 -7 -10 -4 -6 4
-7 -1 -3 -11 4 -12 3 -15 -5 -10 -7 4 -10 2 -7 -6 6 -16 -59 -190 -68 -182 -3
3 -3 -2 -1 -13 3 -10 0 -29 -5 -43 -10 -23 -11 -22 -6 10 7 45 -10 11 -19 -40
-4 -26 -3 -30 3 -15 7 14 10 15 10 5 1 -9 -6 -25 -14 -36 -8 -12 -11 -25 -7
-29 4 -5 1 -4 -7 0 -11 6 -13 4 -8 -9 4 -9 3 -15 -2 -11 -6 3 -14 -1 -18 -10
-15 -26 -47 7 -68 69 -11 31 -23 56 -27 56 -5 0 1 18 12 41 12 23 24 39 26 36
3 -3 -2 -19 -10 -35 -11 -21 -13 -38 -7 -54 l8 -23 8 25 c4 14 19 50 32 80 14
30 34 78 44 105 63 174 81 219 113 283 20 40 41 72 47 72 5 0 7 5 4 10 -8 13
30 62 40 52 5 -4 5 -1 0 7 -8 15 13 33 28 24 5 -3 3 -9 -4 -14 -33 -21 18 -7
56 15 47 28 57 25 27 -7z m-253 -14 c8 -6 -59 -63 -75 -63 -8 0 -17 -1 -21 -2
-10 -4 -12 45 -2 64 7 13 18 15 51 11 24 -3 45 -8 47 -10z m-717 -28 c2 -19 1
-35 -3 -35 -4 0 -9 16 -11 35 -2 19 -1 35 3 35 4 0 9 -16 11 -35z m339 -26
c-10 -23 -10 -22 -7 6 6 39 7 42 12 29 3 -6 0 -22 -5 -35z m-1094 -16 c0 -13
-4 -11 -19 7 -10 12 -18 27 -18 33 0 5 8 3 18 -6 10 -10 19 -25 19 -34z m1120
-9 c-8 -34 -13 -42 -18 -28 -3 11 -5 25 -3 32 11 36 14 42 22 42 5 0 5 -20 -1
-46z m177 6 c49 0 49 0 30 -19 -10 -10 -23 -16 -29 -13 -5 3 -7 2 -3 -3 4 -4
-2 -21 -13 -36 -11 -16 -18 -29 -15 -29 4 0 0 -15 -8 -34 -13 -30 -12 -33 3
-32 24 2 18 -51 -18 -159 -17 -50 -26 -91 -21 -93 13 -5 13 -32 0 -32 -15 0
-28 33 -25 60 27 189 28 209 11 225 -19 19 -11 40 33 90 l26 30 -28 -25 c-32
-28 -60 -74 -50 -84 4 -3 2 -6 -4 -6 -6 0 -19 -31 -28 -70 -18 -75 -30 -92
-23 -36 2 19 0 32 -4 30 -4 -3 -8 -18 -8 -34 0 -16 -4 -31 -9 -34 -11 -7 -5
62 14 169 9 47 16 67 37 111 20 40 22 41 52 33 17 -5 53 -9 80 -9z m-567 -22
c-3 -8 -6 -5 -6 6 -1 11 2 17 5 13 3 -3 4 -12 1 -19z m1297 -26 c3 -5 -8 -6
-25 -4 -16 2 -29 6 -29 8 0 8 49 4 54 -4z m-1889 -51 c-3 -7 2 -19 11 -26 12
-8 13 -14 6 -19 -10 -6 -26 14 -67 83 -5 9 2 8 24 -5 19 -11 29 -24 26 -33z
m52 -37 c-10 -10 -37 16 -37 34 0 13 4 12 22 -5 12 -13 19 -25 15 -29z m451
-85 c28 -50 59 -114 68 -142 9 -29 22 -59 28 -67 6 -8 1 -7 -11 4 -18 15 -153
272 -153 291 0 3 4 5 9 5 5 0 31 -41 59 -91z m-453 21 c3 -5 12 -7 20 -4 7 3
18 -4 25 -15 6 -12 7 -21 1 -21 -5 0 -12 7 -15 16 -4 9 -9 14 -12 11 -4 -3 3
-22 15 -42 28 -48 14 -38 -27 19 -18 25 -29 46 -23 46 5 0 12 -4 16 -10z m378
-33 c7 1 29 -33 50 -75 21 -42 69 -137 107 -211 39 -74 68 -137 65 -139 -7 -8
-5 -12 -99 174 -57 113 -101 186 -131 218 -24 27 -42 53 -38 59 4 6 12 2 20
-9 8 -10 19 -18 26 -17z m762 -119 c-15 -46 -33 -94 -40 -107 l-12 -24 -11 31
c-9 27 -7 39 19 92 16 33 29 66 30 73 0 6 4 3 9 -8 7 -18 8 -18 15 8 4 15 10
26 12 23 3 -3 -7 -42 -22 -88z m-325 60 c0 -39 -16 -51 -17 -13 -1 19 3 35 8
35 5 0 9 -10 9 -22z m560 -99 c-11 -35 -29 -91 -39 -124 -11 -33 -22 -84 -26
-113 -7 -65 -14 -82 -30 -82 -10 0 -9 14 5 63 10 34 30 109 46 167 24 91 53
164 61 156 2 -1 -6 -31 -17 -67z m-875 -131 c34 -71 57 -127 51 -125 -13 4
-61 92 -112 204 -58 127 -9 62 61 -79z m568 23 c6 -23 -5 -41 -60 -109 -24
-30 -43 -64 -43 -76 0 -22 -2 -22 -82 -14 -45 4 -83 6 -85 4 -4 -4 49 -13 120
-20 49 -6 41 -16 -9 -12 -78 7 -137 23 -129 36 3 5 -1 10 -7 13 -7 2 10 14 37
26 28 12 63 28 78 36 34 18 64 19 69 4 12 -35 91 59 91 107 0 28 13 32 20 5z
m31 -87 c3 -8 2 -12 -4 -9 -5 3 -14 -3 -19 -14 -16 -29 -13 -39 6 -16 15 20
15 20 10 -2 -3 -14 -1 -20 7 -17 6 2 17 -9 23 -26 l11 -30 -56 0 -55 0 23 25
c26 28 21 46 -7 24 -12 -9 -11 -5 3 11 12 14 27 35 33 48 14 26 17 27 25 6z
m-529 -85 c11 -17 -1 -21 -15 -4 -8 9 -8 15 -2 15 6 0 14 -5 17 -11z m45 -9
c0 -5 -2 -10 -4 -10 -3 0 -8 5 -11 10 -3 6 -1 10 4 10 6 0 11 -4 11 -10z m256
-57 c21 -3 94 -6 162 -6 67 0 122 -3 122 -7 0 -14 -233 -10 -298 4 -35 8 -66
17 -70 21 -4 4 5 5 19 2 14 -4 44 -10 65 -14z m142 10 c-10 -2 -26 -2 -35 0
-10 3 -2 5 17 5 19 0 27 -2 18 -5z m-443 -31 c-3 -3 -11 0 -18 7 -9 10 -8 11
6 5 10 -3 15 -9 12 -12z m326 -19 c30 -4 107 -7 172 -6 96 2 117 -1 117 -13 0
-15 -5 -16 -140 -16 -124 -1 -250 23 -250 48 0 10 6 11 23 5 13 -5 48 -13 78
-18z m-369 -11 c32 -10 60 -21 64 -25 6 -6 -33 4 -126 33 -14 5 -18 9 -10 9 8
0 41 -7 72 -17z m143 8 c3 -5 2 -10 -4 -10 -5 0 -13 5 -16 10 -3 6 -2 10 4 10
5 0 13 -4 16 -10z m-137 -30 c75 -23 94 -36 71 -51 -13 -9 -59 -6 -76 4 -4 2
-17 1 -28 -4 -16 -6 -17 -8 -3 -8 9 -1 29 -6 45 -12 27 -10 27 -11 9 -25 -11
-8 -29 -14 -40 -14 -17 1 -15 4 9 15 26 12 27 14 5 9 -14 -3 -42 2 -62 11 -21
8 -45 15 -55 14 -10 0 5 -9 32 -19 28 -10 44 -19 36 -19 -20 -1 -121 33 -121
41 0 3 8 4 18 1 12 -3 19 1 19 11 0 8 -4 13 -8 10 -4 -2 -11 1 -14 6 -5 8 -12
6 -24 -4 -10 -9 -28 -13 -42 -11 -14 3 -41 6 -61 7 -20 2 -34 6 -32 10 3 4 18
5 34 3 64 -10 94 -13 82 -8 -6 2 -10 9 -7 14 4 5 -2 6 -11 2 -12 -4 -15 -3
-10 5 4 7 2 12 -6 12 -7 1 -2 7 12 16 34 20 134 13 228 -16z m342 -20 c13 0
13 1 0 11 -11 8 -8 9 15 4 53 -12 60 -13 83 -14 13 -1 20 -5 17 -11 -4 -6 -11
-7 -17 -4 -5 4 -20 1 -31 -5 -26 -14 -148 6 -154 26 -3 8 6 9 34 2 21 -5 45
-9 53 -9z m-220 -10 c6 -11 7 -20 2 -20 -6 0 -12 9 -15 20 -3 11 -3 20 -1 20
2 0 8 -9 14 -20z m538 3 c-20 -5 -25 -23 -6 -23 6 0 9 -2 6 -5 -3 -3 -17 -1
-31 4 -14 5 -54 13 -89 16 -34 4 -64 8 -66 10 -2 1 43 3 100 2 57 0 95 -2 86
-4z m-873 -58 c11 -4 34 -13 50 -20 17 -7 56 -19 88 -26 31 -7 57 -16 57 -20
0 -8 -62 8 -163 42 -31 10 -64 19 -71 19 -8 0 -17 4 -20 9 -7 10 27 8 59 -4z
m313 -32 c-15 -2 -42 -2 -60 0 -18 2 -6 4 27 4 33 0 48 -2 33 -4z m-329 -17
c9 -6 12 -5 8 2 -5 6 0 8 13 5 11 -3 20 -9 20 -14 0 -5 7 -5 17 -2 11 4 14 3
9 -6 -6 -8 -1 -10 17 -6 14 4 28 2 31 -4 4 -6 22 -11 41 -11 19 0 36 -3 38 -7
3 -5 44 -8 91 -8 74 1 87 -2 92 -17 7 -23 21 -23 33 1 10 19 90 35 101 21 4
-4 245 21 278 29 2 1 0 6 -3 11 -9 14 138 13 186 -2 33 -9 39 -15 36 -34 -2
-13 -7 -27 -12 -31 -4 -5 -5 -2 0 6 6 11 4 13 -11 6 -17 -8 -146 -53 -198 -70
-12 -4 -24 -7 -28 -6 -5 1 -8 -3 -8 -8 0 -13 -70 -23 -180 -26 -52 -1 -103 -6
-112 -10 -9 -4 -63 0 -120 8 -57 8 -123 15 -147 16 -45 0 -134 25 -210 59 -45
21 -76 67 -65 97 6 15 59 16 83 1z m248 -22 c-3 -3 -12 -4 -19 -1 -8 3 -5 6 6
6 11 1 17 -2 13 -5z m698 -73 c-13 -11 -134 -51 -154 -51 -9 1 22 14 69 29
101 34 96 33 85 22z m-995 -41 c18 -12 2 -12 -25 0 -13 6 -15 9 -5 9 8 0 22
-4 30 -9z m283 -70 c5 0 5 5 1 12 -7 11 30 8 116 -9 67 -14 351 -7 425 9 133
30 134 30 89 9 -22 -10 -65 -22 -95 -27 -30 -4 -56 -8 -59 -9 -3 -1 -32 -5
-65 -10 -45 -6 -55 -10 -40 -16 19 -7 19 -8 -2 -8 -13 -1 -23 5 -24 12 0 10
-2 10 -6 0 -2 -7 -11 -13 -19 -13 -9 0 -12 5 -9 10 3 6 -1 10 -10 10 -9 0 -13
-4 -10 -10 3 -5 -3 -10 -14 -10 -12 0 -21 5 -21 10 0 6 -10 10 -22 9 -22 0
-22 -1 -3 -9 15 -6 16 -9 4 -9 -9 -1 -19 2 -23 6 -4 4 -24 7 -44 6 -37 -2 -37
-2 -7 7 22 7 15 8 -27 4 -41 -4 -58 -2 -58 6 0 7 -7 10 -15 6 -8 -3 -15 -1
-15 4 0 6 -5 10 -11 10 -5 0 -8 -4 -5 -9 6 -9 -125 17 -222 44 -34 10 -65 21
-67 25 -2 4 53 -8 123 -26 70 -19 131 -34 135 -34z m-138 0 c13 -6 15 -9 5 -9
-8 0 -22 4 -30 9 -18 12 -2 12 25 0z m135 -24 c25 -8 68 -17 95 -21 28 -4 61
-8 75 -10 89 -13 315 -2 421 19 33 7 56 10 52 6 -12 -9 -73 -28 -108 -34 -16
-2 -49 -7 -73 -11 -75 -12 -287 -7 -377 9 -36 7 -190 48 -194 52 -10 10 68 3
109 -10z m798 -13 c20 -27 20 -28 1 -54 -13 -19 -32 -29 -59 -34 -27 -4 -38
-11 -33 -18 4 -7 -2 -5 -12 3 -11 9 -16 10 -11 3 5 -9 -1 -13 -21 -14 -15 -1
-47 -3 -70 -4 -33 -3 -42 0 -46 16 -5 17 -12 18 -89 12 -45 -3 -86 -11 -90
-17 -5 -7 -8 -4 -8 7 0 14 10 17 63 19 34 1 76 3 92 3 17 1 40 7 52 13 12 7
32 12 45 12 13 1 37 7 53 15 19 10 22 13 8 9 -43 -10 -73 -14 -73 -9 0 11 62
35 93 35 18 0 42 7 53 15 26 20 29 19 52 -12z m-744 -42 c4 -5 -3 -7 -14 -4
-23 6 -26 13 -6 13 8 0 17 -4 20 -9z m506 -10 c-20 -12 -147 -24 -248 -23 -71
0 -203 10 -209 16 -1 1 80 1 180 -1 100 -1 202 2 227 6 62 12 67 12 50 2z
m-215 -50 c-8 -7 -45 -9 -50 -1 -2 3 9 6 25 6 17 0 27 -2 25 -5z m165 -1 c-13
-8 -13 -10 2 -10 9 0 19 6 21 13 3 7 6 5 6 -6 1 -15 -6 -17 -56 -13 -105 8
-109 9 -43 16 36 4 70 7 75 8 6 1 3 -3 -5 -8z m83 -65 c98 -2 181 -6 185 -10
4 -4 -9 -5 -30 -1 -23 4 -37 3 -40 -5 -7 -22 -458 -2 -498 23 -9 6 26 6 95 2
61 -4 190 -8 288 -9z m-438 -60 c56 -8 245 -19 337 -20 43 0 74 -4 70 -9 -5
-9 90 -3 148 9 14 2 45 9 70 14 25 4 53 12 63 16 10 4 17 3 17 -3 0 -12 -42
-27 -120 -43 -76 -15 -309 -12 -450 6 -19 2 -69 7 -110 11 -136 11 -152 15
-115 23 17 4 35 6 40 5 6 -2 28 -6 50 -9z"/>
<path d="M3224 4816 c11 -9 24 -16 30 -16 12 0 7 5 -24 19 -24 11 -24 11 -6
-3z"/>
<path d="M3314 4565 c38 -36 71 -63 74 -61 6 7 -118 126 -131 126 -7 -1 19
-30 57 -65z"/>
<path d="M2378 4763 c6 -2 18 -2 25 0 6 3 1 5 -13 5 -14 0 -19 -2 -12 -5z"/>
<path d="M2532 4654 c-30 -8 -61 -18 -70 -24 -31 -18 9 -11 83 15 78 26 70 32
-13 9z"/>
<path d="M2515 4622 c-30 -10 -43 -18 -32 -20 17 -3 87 24 87 33 0 3 -1 5 -2
4 -2 0 -25 -8 -53 -17z"/>
<path d="M3091 4293 c19 -23 36 -39 38 -37 3 3 -12 21 -34 42 l-38 37 34 -42z"/>
<path d="M3300 4136 c0 -2 8 -10 18 -17 15 -13 16 -12 3 4 -13 16 -21 21 -21
13z"/>
<path d="M3350 4075 c13 -14 25 -25 27 -25 9 0 -33 49 -41 50 -5 0 1 -11 14
-25z"/>
<path d="M3380 4036 c0 -2 8 -10 18 -17 15 -13 16 -12 3 4 -13 16 -21 21 -21
13z"/>
<path d="M3541 3812 c28 -45 56 -85 62 -89 6 -4 2 7 -9 23 -11 16 -26 41 -33
56 -8 15 -27 42 -43 60 -18 21 -10 3 23 -50z"/>
<path d="M2038 4283 c6 -2 18 -2 25 0 6 3 1 5 -13 5 -14 0 -19 -2 -12 -5z"/>
<path d="M3300 3850 c6 -11 13 -20 16 -20 2 0 0 9 -6 20 -6 11 -13 20 -16 20
-2 0 0 -9 6 -20z"/>
<path d="M3350 3761 c0 -6 4 -13 10 -16 6 -3 7 1 4 9 -7 18 -14 21 -14 7z"/>
<path d="M2960 4175 c13 -14 26 -23 28 -20 6 6 -33 45 -44 45 -4 0 3 -11 16
-25z"/>
<path d="M3666 4041 c-4 -5 -2 -12 3 -15 5 -4 12 -2 15 3 4 5 2 12 -3 15 -5 4
-12 2 -15 -3z"/>
<path d="M3685 4011 c-3 -6 1 -13 9 -18 8 -4 15 -12 16 -18 2 -8 74 -137 87
-154 2 -2 6 -2 9 1 3 4 -6 24 -20 46 -14 22 -22 43 -19 46 4 3 1 6 -6 6 -7 0
-9 5 -5 12 4 7 3 8 -4 4 -7 -4 -12 -1 -12 9 0 9 -11 27 -24 40 -13 13 -21 26
-18 29 3 3 3 6 -1 6 -3 0 -8 -4 -12 -9z"/>
<path d="M2628 4173 c12 -2 32 -2 45 0 12 2 2 4 -23 4 -25 0 -35 -2 -22 -4z"/>
<path d="M1770 4092 c0 -4 10 -13 23 -21 22 -14 22 -14 3 8 -20 22 -26 25 -26
13z"/>
<path d="M1660 4030 c0 -6 7 -10 15 -10 8 0 15 2 15 4 0 2 -7 6 -15 10 -8 3
-15 1 -15 -4z"/>
<path d="M1700 4016 c0 -2 7 -7 16 -10 8 -3 12 -2 9 4 -6 10 -25 14 -25 6z"/>
<path d="M2380 3730 c-9 -6 -10 -10 -3 -10 6 0 15 5 18 10 8 12 4 12 -15 0z"/>
<path d="M3271 3518 c-1 -13 49 -121 54 -116 3 2 -8 31 -24 64 -17 32 -30 56
-30 52z"/>
<path d="M3345 3360 c9 -16 18 -30 21 -30 2 0 -2 14 -11 30 -9 17 -18 30 -21
30 -2 0 2 -13 11 -30z"/>
<path d="M3401 3273 c7 -12 15 -20 18 -17 3 2 -3 12 -13 22 -17 16 -18 16 -5
-5z"/>
<path d="M3500 3366 c0 -8 42 -76 46 -76 3 0 -5 18 -16 40 -18 35 -30 49 -30
36z"/>
<path d="M2820 3166 c0 -3 15 -15 33 -27 l32 -23 -24 27 c-22 24 -41 35 -41
23z"/>
<path d="M2710 3086 c0 -2 8 -10 18 -17 15 -13 16 -12 3 4 -13 16 -21 21 -21
13z"/>
<path d="M2780 3035 c0 -7 110 -88 114 -84 2 2 -23 23 -55 46 -33 24 -59 41
-59 38z"/>
<path d="M2863 2647 c0 -7 9 -13 19 -13 10 0 18 1 18 3 0 1 -8 7 -18 12 -13 7
-19 6 -19 -2z"/>
<path d="M3225 2490 c-16 -7 -17 -9 -3 -9 9 -1 20 4 23 9 7 11 7 11 -20 0z"/>
<path d="M2611 2301 c26 -20 89 -54 89 -48 0 5 -99 67 -107 67 -3 0 5 -8 18
-19z"/>
<path d="M3156 1873 c-6 -14 -5 -15 5 -6 7 7 10 15 7 18 -3 3 -9 -2 -12 -12z"/>
<path d="M3038 2263 c7 -3 16 -2 19 1 4 3 -2 6 -13 5 -11 0 -14 -3 -6 -6z"/>
<path d="M2956 1863 c-6 -14 -5 -15 5 -6 7 7 10 15 7 18 -3 3 -9 -2 -12 -12z"/>
<path d="M2468 1033 c7 -3 16 -2 19 1 4 3 -2 6 -13 5 -11 0 -14 -3 -6 -6z"/>
<path d="M2015 4953 c-50 -28 -47 -28 45 1 67 21 71 23 35 22 -23 0 -59 -11
-80 -23z"/>
<path d="M1619 4751 c-31 -16 -124 -83 -179 -129 -32 -28 15 2 77 50 36 26 82
57 104 68 21 11 39 23 39 25 0 7 0 7 -41 -14z"/>
<path d="M3890 4370 c0 -5 27 -38 60 -72 l61 -63 -52 73 c-48 67 -69 86 -69
62z"/>
<path d="M975 3858 c-17 -60 -35 -330 -21 -317 3 3 10 66 15 140 5 74 12 145
15 159 16 70 17 80 13 80 -2 0 -12 -28 -22 -62z"/>
<path d="M4091 3810 c14 -31 19 -36 19 -24 0 6 -7 19 -16 30 -14 18 -14 18 -3
-6z"/>
<path d="M4216 3485 c-9 -26 -7 -32 5 -12 6 10 9 21 6 23 -2 3 -7 -2 -11 -11z"/>
<path d="M4139 3253 c0 -5 -2 -21 -4 -38 -2 -16 -6 -51 -9 -77 -4 -26 -17 -77
-31 -113 -13 -36 -26 -76 -28 -88 -4 -24 -53 -126 -87 -182 -12 -19 -17 -35
-12 -35 25 0 128 227 161 356 14 51 26 184 17 184 -3 0 -6 -3 -7 -7z"/>
<path d="M3508 2048 c-35 -44 -60 -82 -41 -63 38 38 85 96 81 101 -3 3 -21
-14 -40 -38z"/>
<path d="M3282 1550 c0 -14 2 -19 5 -12 2 6 2 18 0 25 -3 6 -5 1 -5 -13z"/>
<path d="M2106 730 c6 -6 22 -13 35 -15 13 -3 46 -11 73 -19 69 -21 44 -2 -31
23 -70 24 -93 27 -77 11z"/>
<path d="M2748 703 c6 -2 18 -2 25 0 6 3 1 5 -13 5 -14 0 -19 -2 -12 -5z"/>
<path d="M2790 706 c0 -2 7 -7 16 -10 8 -3 12 -2 9 4 -6 10 -25 14 -25 6z"/>
<path d="M3225 700 c-3 -6 1 -7 9 -4 18 7 21 14 7 14 -6 0 -13 -4 -16 -10z"/>
<path d="M2835 690 c-3 -5 -1 -10 4 -10 6 0 11 5 11 10 0 6 -2 10 -4 10 -3 0
-8 -4 -11 -10z"/>
<path d="M3170 680 c-9 -6 -10 -10 -3 -10 6 0 15 5 18 10 8 12 4 12 -15 0z"/>
<path d="M3200 670 c-57 -24 -86 -25 -100 -2 -9 16 -11 15 -29 -5 -10 -12 -29
-23 -42 -25 -13 -2 -30 -7 -37 -11 -27 -18 -303 -30 -372 -17 -25 5 -81 11
-125 15 -69 5 -131 8 -377 18 -27 1 -48 -1 -48 -5 0 -5 12 -8 28 -8 15 0 34
-5 42 -10 12 -7 8 -10 -15 -11 -64 -2 -101 -9 -167 -30 l-68 -22 0 -37 c0 -29
6 -41 25 -54 14 -9 30 -14 35 -11 5 3 11 1 14 -4 7 -11 42 -3 71 15 11 7 47
20 80 30 94 27 338 10 426 -30 27 -12 28 -14 9 -11 -55 10 -120 13 -120 6 0
-5 13 -8 30 -9 16 0 37 -5 47 -11 13 -8 -10 -10 -89 -11 -97 0 -108 -2 -108
-18 0 -25 21 -52 45 -56 11 -2 47 -7 80 -10 33 -4 76 -10 95 -13 19 -3 42 -7
50 -8 8 -1 22 -5 30 -8 8 -3 26 -7 40 -9 14 -2 31 -14 40 -31 13 -24 13 -29 0
-37 -11 -7 -3 -10 28 -10 24 0 51 -4 62 -10 23 -12 130 23 156 51 18 20 18 21
-1 35 -10 8 -13 14 -7 14 7 0 12 9 12 20 0 12 17 38 38 59 91 93 163 203 141
216 -17 11 -1 21 56 35 30 7 60 19 66 27 14 16 14 16 -41 -7z m-937 -79 c5 0
7 -6 5 -12 -2 -7 -45 -12 -118 -13 -100 -1 -122 -4 -165 -26 -72 -35 -74 -35
-35 -5 46 35 74 46 140 54 47 6 146 7 173 2z"/>
<path d="M2758 643 c12 -2 30 -2 40 0 9 3 -1 5 -23 4 -22 0 -30 -2 -17 -4z"/>
<path d="M1955 633 c-16 -3 -34 -8 -38 -12 -7 -7 37 -3 123 12 33 6 -46 5 -85
0z"/>
<path d="M2858 633 c6 -2 18 -2 25 0 6 3 1 5 -13 5 -14 0 -19 -2 -12 -5z"/>
<path d="M2920 635 c0 -7 30 -13 34 -7 3 4 -4 9 -15 9 -10 1 -19 0 -19 -2z"/>
<path d="M2256 419 c-49 -12 -115 -53 -140 -88 -17 -23 -16 -23 15 5 42 39
110 74 144 74 14 0 25 5 25 10 0 6 -1 10 -2 9 -2 -1 -21 -5 -42 -10z"/>
</g>
</svg>
